<svg width="33" height="33" viewBox="0 0 33 33" fill="none" xmlns="http://www.w3.org/2000/svg">
<path d="M28.2136 8.58553C28.2136 8.41923 28.1809 8.25455 28.1172 8.10091C28.0536 7.94726 27.9603 7.80766 27.8427 7.69007C27.7251 7.57247 27.5855 7.47919 27.4319 7.41555C27.2782 7.35191 27.1136 7.31915 26.9473 7.31915H6.05275C5.88645 7.31915 5.72178 7.35191 5.56813 7.41555C5.41449 7.47919 5.27488 7.57247 5.15729 7.69007C5.0397 7.80766 4.94642 7.94726 4.88277 8.10091C4.81913 8.25455 4.78638 8.41923 4.78638 8.58553V24.4145C4.78638 24.7504 4.9198 25.0725 5.15729 25.31C5.39478 25.5475 5.71689 25.6809 6.05275 25.6809H26.9473C27.2831 25.6809 27.6052 25.5475 27.8427 25.31C28.0802 25.0725 28.2136 24.7504 28.2136 24.4145V8.58553Z" stroke="#F55A70" stroke-linecap="round" stroke-linejoin="round"/>
<path d="M26.1663 7.31913L25.7661 5.82313C25.6791 5.49877 25.4669 5.22225 25.176 5.05439C24.8851 4.88652 24.5395 4.84106 24.2151 4.92801L15.2914 7.31913M28.2136 22.8663L28.9671 22.6641C29.1278 22.6211 29.2784 22.5469 29.4104 22.4457C29.5424 22.3444 29.6531 22.2182 29.7363 22.0742C29.8195 21.9302 29.8735 21.7712 29.8952 21.6063C29.9169 21.4414 29.906 21.2738 29.8629 21.1131L28.2129 14.9579M6.83375 25.6809L7.23388 27.1769C7.32088 27.5012 7.53315 27.7778 7.82401 27.9456C8.11487 28.1135 8.4605 28.1589 8.78488 28.072L17.7086 25.6809M4.78638 10.1338L4.03288 10.3359C3.87221 10.3789 3.72158 10.4531 3.58961 10.5543C3.45763 10.6556 3.34689 10.7818 3.2637 10.9258C3.18051 11.0699 3.12651 11.2289 3.10479 11.3938C3.08306 11.5587 3.09403 11.7262 3.13706 11.8869L4.79669 18.0799M8.90175 11.1183H24.0976M8.90175 14.7063H24.0976M8.90175 18.2937H24.0976M8.90175 21.8818H16.5" stroke="#F55A70" stroke-linecap="round" stroke-linejoin="round"/>
</svg>
