<svg width="50" height="50" viewBox="0 0 50 50" fill="none" xmlns="http://www.w3.org/2000/svg">
<rect width="50" height="50" rx="25" fill="url(#paint0_linear_1_1083)"/>
<mask id="mask0_1_1083" style="mask-type:luminance" maskUnits="userSpaceOnUse" x="16" y="16" width="18" height="18">
<rect x="16" y="16" width="18" height="18" fill="white"/>
</mask>
<g mask="url(#mask0_1_1083)">
<path d="M19.8999 18.25H19.7499C18.7524 18.2403 17.7929 18.6323 17.0876 19.3376C16.3822 20.043 15.9902 21.0025 15.9999 22C15.9938 22.9785 16.3707 23.9206 17.0499 24.625C16.3989 25.026 16.0017 25.7354 15.9999 26.5C15.9926 27.228 16.3611 27.9084 16.9749 28.3C16.8281 28.6832 16.7519 29.0897 16.7499 29.5C16.7402 30.4975 17.1322 31.457 17.8376 32.1624C18.5429 32.8678 19.5024 33.2597 20.4999 33.25C21.4974 33.2597 22.4569 32.8678 23.1623 32.1624C23.8677 31.457 24.2596 30.4975 24.2499 29.5V19C24.2609 18.4 24.0274 17.8213 23.603 17.3969C23.1787 16.9726 22.6 16.739 21.9999 16.75C21.0479 16.7391 20.1984 17.3459 19.8999 18.25Z" fill="white"/>
<path d="M33.9999 22C34.0096 21.0025 33.6176 20.043 32.9123 19.3376C32.2069 18.6323 31.2474 18.2403 30.2499 18.25H30.0999C29.8015 17.3459 28.9519 16.7391 27.9999 16.75C27.3999 16.739 26.8212 16.9726 26.3968 17.3969C25.9724 17.8213 25.7389 18.4 25.7499 19V29.5C25.7402 30.4975 26.1321 31.457 26.8375 32.1624C27.5429 32.8678 28.5024 33.2597 29.4999 33.25C30.4974 33.2597 31.4569 32.8678 32.1623 32.1624C32.8676 31.457 33.2596 30.4975 33.2499 29.5C33.2479 29.0897 33.1717 28.6832 33.0249 28.3C33.6387 27.9084 34.0072 27.228 33.9999 26.5C33.9982 25.7354 33.6009 25.026 32.9499 24.625C33.6291 23.9206 34.006 22.9785 33.9999 22Z" fill="white"/>
</g>
<defs>
<linearGradient id="paint0_linear_1_1083" x1="0" y1="0" x2="0" y2="50" gradientUnits="userSpaceOnUse">
<stop stop-color="#FE6587"/>
<stop offset="1" stop-color="#F52D6A"/>
</linearGradient>
</defs>
</svg>
