<svg width="33" height="33" viewBox="0 0 33 33" fill="none" xmlns="http://www.w3.org/2000/svg">
<path d="M4.34637 6.14486C5.94146 4.54948 8.08087 3.61635 10.3353 3.5327C12.5898 3.44905 14.7924 4.22107 16.5014 5.69386C18.2088 4.22353 20.4086 3.45237 22.6603 3.53478C24.912 3.61718 27.0495 4.54707 28.6449 6.13827C30.2403 7.72946 31.1758 9.86454 31.2641 12.1161C31.3524 14.3676 30.587 16.5694 29.1211 18.2806L18.4442 28.9919C17.9537 29.4826 17.2958 29.7697 16.6025 29.7957C15.9091 29.8217 15.2315 29.5847 14.7056 29.1321L14.5544 28.9932L3.87887 18.2806C2.41379 16.5708 1.64804 14.3711 1.73472 12.1211C1.82139 9.87118 2.7541 7.73685 4.34637 6.14486ZM6.29062 8.08911C5.16621 9.21384 4.51805 10.7283 4.48067 12.3183C4.44328 13.9082 5.01955 15.4515 6.08987 16.6279L6.29062 16.8396L16.5 27.049L23.7916 19.7546L18.931 14.8954L17.4735 16.3529C16.7 17.1267 15.6508 17.5616 14.5567 17.5618C13.4626 17.5621 12.4132 17.1277 11.6394 16.3542C10.8655 15.5808 10.4307 14.5316 10.4304 13.4375C10.4301 12.3433 10.8645 11.2939 11.638 10.5201L14.5282 7.62848C13.378 6.7105 11.9383 6.23243 10.4674 6.28006C8.99657 6.32768 7.59081 6.89788 6.50237 7.88836L6.29062 8.08911ZM17.9589 11.9776C18.2167 11.7198 18.5664 11.575 18.931 11.575C19.2956 11.575 19.6453 11.7198 19.9031 11.9776L25.7359 17.8104L26.7094 16.8396C27.8526 15.6972 28.5035 14.1527 28.5228 12.5366C28.542 10.9205 27.9282 9.36101 26.8125 8.19162C25.6969 7.02223 24.1679 6.3358 22.5527 6.27913C20.9374 6.22246 19.3641 6.80004 18.1692 7.88836L17.9589 8.08911L13.5836 12.4644C13.3453 12.7025 13.2027 13.0199 13.1829 13.3563C13.1632 13.6926 13.2676 14.0245 13.4764 14.289L13.5836 14.4086C13.8218 14.6469 14.1392 14.7895 14.4755 14.8093C14.8119 14.8291 15.1438 14.7246 15.4082 14.5159L15.5279 14.4086L17.9589 11.9776Z" fill="#752FFF"/>
</svg>
