<svg width="20" height="20" viewBox="0 0 20 20" fill="none" xmlns="http://www.w3.org/2000/svg">
<path d="M18.4999 0H1.49992C1.1242 0 0.763861 0.105357 0.498184 0.292893C0.232508 0.48043 0.083252 0.734784 0.083252 1V10L7.16658 6V9H15.6666V11H7.16658V14L0.083252 10V19C0.083252 19.2652 0.232508 19.5196 0.498184 19.7071C0.763861 19.8946 1.1242 20 1.49992 20H18.4999C18.8756 20 19.236 19.8946 19.5017 19.7071C19.7673 19.5196 19.9166 19.2652 19.9166 19V1C19.9166 0.734784 19.7673 0.48043 19.5017 0.292893C19.236 0.105357 18.8756 0 18.4999 0Z" fill="#BE4B27"/>
</svg>
