<svg width="22" height="20" viewBox="0 0 22 20" fill="none" xmlns="http://www.w3.org/2000/svg">
<path d="M20.75 0H1.25C1.05109 0 0.860322 0.0526785 0.71967 0.146447C0.579018 0.240215 0.5 0.367392 0.5 0.5V9H9.5V6L17 10L9.5 14V11H0.5V19.5C0.5 19.6326 0.579018 19.7598 0.71967 19.8536C0.860322 19.9473 1.05109 20 1.25 20H20.75C20.9489 20 21.1397 19.9473 21.2803 19.8536C21.421 19.7598 21.5 19.6326 21.5 19.5V0.5C21.5 0.367392 21.421 0.240215 21.2803 0.146447C21.1397 0.0526785 20.9489 0 20.75 0Z" fill="#50B748"/>
</svg>
